<?xml version="1.0" encoding="UTF-8"?>
<svg width="20px" height="14px" viewBox="0 0 20 14" version="1.1" xmlns="http://www.w3.org/2000/svg" xmlns:xlink="http://www.w3.org/1999/xlink">
    <!-- Generator: sketchtool 52.4 (67378) - http://www.bohemiancoding.com/sketch -->
    <title>87907AE7-C5C9-4631-B7B4-FDE0ACD8C877</title>
    <desc>Created with sketchtool.</desc>
    <defs>
        <path d="M10,0 C5.45454545,0 1.57272727,2.90266667 0,7 C1.57272727,11.0973333 5.45454545,14 10,14 C14.5454545,14 18.4272727,11.0973333 20,7 C18.4272727,2.90266667 14.5454545,0 10,0 Z M10,11.6666667 C7.49090909,11.6666667 5.45454545,9.576 5.45454545,7 C5.45454545,4.424 7.49090909,2.33333333 10,2.33333333 C12.5090909,2.33333333 14.5454545,4.424 14.5454545,7 C14.5454545,9.576 12.5090909,11.6666667 10,11.6666667 Z M10,4.2 C8.49090909,4.2 7.27272727,5.45066667 7.27272727,7 C7.27272727,8.54933333 8.49090909,9.8 10,9.8 C11.5090909,9.8 12.7272727,8.54933333 12.7272727,7 C12.7272727,5.45066667 11.5090909,4.2 10,4.2 Z" id="path-1"></path>
    </defs>
    <g id="Admin" stroke="none" stroke-width="1" fill="none" fill-rule="evenodd">
        <g id="-hugs_login" transform="translate(-799.000000, -480.000000)">
            <g id="Group-2" transform="translate(441.000000, 349.000000)">
                <g id="ID" transform="translate(0.000000, 93.000000)">
                    <g id="ic_visibility" transform="translate(358.000000, 38.000000)">
                        <mask id="mask-2" fill="white">
                            <use xlink:href="#path-1"></use>
                        </mask>
                        <use id="Mask" fill="#FFFFFF" fill-rule="nonzero" xlink:href="#path-1"></use>
                    </g>
                </g>
            </g>
        </g>
    </g>
</svg>
