<?xml version="1.0" encoding="UTF-8"?>
<svg width="107px" height="499px" viewBox="0 0 107 499" version="1.1" xmlns="http://www.w3.org/2000/svg" xmlns:xlink="http://www.w3.org/1999/xlink">
    <!-- Generator: sketchtool 52.4 (67378) - http://www.bohemiancoding.com/sketch -->
    <title>FD4BCA1D-3F84-4611-984D-00F6E369336C</title>
    <desc>Created with sketchtool.</desc>
    <g id="Admin" stroke="none" stroke-width="1" fill="none" fill-rule="evenodd" opacity="0.207240513">
        <g id="-hugs_login" transform="translate(-1103.000000, -334.000000)" fill="#FFFFFF">
            <g id="Group" transform="translate(1156.500000, 583.500000) rotate(-90.000000) translate(-1156.500000, -583.500000) translate(907.000000, 530.000000)">
                <path d="M35.1573166,103.718795 L0,103.718795 L0,2.28120516 L35.1573166,2.28120516 L35.1573166,36.651363 L57.4890027,36.651363 L57.4890027,2.28120516 L92.6463193,2.28120516 L92.6463193,103.718795 L57.4890027,103.718795 L57.4890027,68.4361549 L35.1573166,68.4361549 L35.1573166,103.718795 Z M112.886801,67.0674319 L112.886801,2.28120516 L149.100346,2.28120516 L149.100346,61.1362984 C149.100346,64.1779053 149.402125,68.4361549 152.269031,71.4777618 C154.230598,73.6068867 156.644834,74.215208 159.51174,74.215208 C163.283984,74.215208 165.547331,73.1506456 166.905339,71.7819225 C169.621355,69.0444763 169.621355,63.7216643 169.621355,61.1362984 L169.621355,2.28120516 L205.985789,2.28120516 L205.985789,64.482066 C205.985789,72.3902439 204.476892,83.9483501 195.423505,93.3773314 C185.163001,104.022956 170.677583,106 159.51174,106 C150.307464,106 133.558699,105.087518 122.091077,92.6169297 C114.244809,84.1004304 112.886801,74.5193687 112.886801,67.0674319 Z M275.416336,68.7403156 L275.416336,44.7116212 L332,44.7116212 L332,46.9928264 C332,59.4634146 330.943772,76.3443329 318.87259,89.4232425 C308.913865,100.220947 292.76866,106 276.170785,106 C255.046217,106 242.220586,97.4835007 234.676098,89.2711621 C225.170042,78.9296987 221.699578,66.6111908 221.699578,53.2281205 C221.699578,34.6743185 228.791397,22.964132 235.581436,15.9684362 C243.729484,7.45193687 257.611343,0 277.830572,0 C288.694636,0 298.049802,2.12912482 307.404967,7.14777618 C316.005684,11.8622669 322.041275,17.6413199 326.718858,25.8536585 L292.61777,38.6284075 C290.505313,35.2826399 286.431289,30.8723099 278.735911,30.8723099 C273.454769,30.8723099 269.078966,32.697274 265.91028,35.5868006 C261.836257,39.3888092 258.516682,45.928264 258.516682,54.748924 C258.516682,61.5925395 260.780028,68.5882353 265.155832,72.8464849 C268.022737,75.5839311 271.945871,77.4088953 277.076123,77.4088953 C282.508155,77.4088953 289.599974,75.4318508 292.014211,68.7403156 L275.416336,68.7403156 Z" id="HUG"></path>
                <polygon id="’" points="409 3 385.488095 53 359 53 374.922619 3"></polygon>
                <path d="M495.224265,9.32065997 L485.545956,35.1743185 C481.227941,32.1327116 473.336397,27.5703013 465.295956,27.5703013 C463.360294,27.5703013 460.382353,27.874462 458.446691,29.3952654 C457.106618,30.4598278 456.659926,31.5243902 456.659926,33.0451937 C456.659926,35.1743185 456.957721,37.151363 462.466912,38.3680057 L473.931985,40.9533716 C482.716912,42.9304161 487.928309,46.5803443 490.90625,49.6219512 C497.159926,55.8572453 498.5,63.6133429 498.5,69.6965567 C498.5,78.3651363 496.266544,86.4253945 489.566176,93.5731707 C483.908088,99.5043042 473.1875,106.5 454.575368,106.5 C439.387868,106.5 429.262868,102.08967 420.775735,98.5918221 L417.5,97.223099 L428.369485,68.6319943 L432.240809,71.6736011 C435.963235,74.5631277 443.556985,79.125538 452.341912,79.125538 C457.255515,79.125538 459.340074,77.9088953 460.084559,77.3005739 C461.722426,75.9318508 462.020221,74.258967 462.020221,72.7381636 C462.020221,71.8256815 461.871324,70.304878 460.829044,69.2403156 C459.637868,68.0236729 457.702206,67.5674319 453.979779,66.8070301 L445.194853,65.1341463 C439.536765,64.0695839 433.431985,62.2446198 427.922794,56.4655667 C422.860294,51.1427547 420.775735,45.0595409 420.775735,37.7596844 C420.775735,28.330703 423.902574,20.2704448 430.454044,13.5789096 C438.047794,5.67073171 449.215074,0.5 464.998162,0.5 C472.889706,0.5 483.163603,1.8687231 495.224265,9.32065997 Z" id="S"></path>
            </g>
        </g>
    </g>
</svg>